<svg aria-hidden="true" style="position: absolute; width: 0; height: 0; overflow: hidden;" version="1.1" xmlns="http://www.w3.org/2000/svg" xmlns:xlink="http://www.w3.org/1999/xlink">
<defs>
<symbol id="icon-Arrow-1" viewBox="0 0 43 32">
<path d="M5.809 16l11.889-11.89c0.951-0.95 0.951-2.444 0-3.397-0.951-0.95-2.445-0.95-3.397 0l-13.589 13.589c-0.951 0.95-0.951 2.447 0 3.397l13.589 13.589c0.951 0.95 2.445 0.95 3.397 0 0.951-0.952 0.951-2.447 0-3.397l-11.889-11.89z"></path>
<path d="M42.674 13.598v4.804h-40.262v-4.804h40.262zM5.809 16l11.889-11.89c0.951-0.95 0.951-2.444 0-3.397-0.951-0.95-2.445-0.95-3.397 0l-13.589 13.589c-0.951 0.95-0.951 2.447 0 3.397l13.589 13.589c0.951 0.95 2.445 0.95 3.397 0 0.951-0.952 0.951-2.447 0-3.397l-11.889-11.89z"></path>
</symbol>
<symbol id="icon-facebook" viewBox="0 0 32 32">
<path d="M0 16c0-8.837 7.164-16 16-16s16 7.163 16 16c0 8.837-7.164 16-16 16s-16-7.163-16-16zM17.668 25.407v-8.704h2.403l0.318-3h-2.721l0.004-1.501c0-0.783 0.074-1.202 1.198-1.202h1.503v-3h-2.403c-2.887 0-3.903 1.455-3.903 3.902v1.801h-1.799v3h1.799v8.704h3.602z"></path>
</symbol>
<symbol id="icon-instagram" viewBox="0 0 32 32">
<path d="M0 16c0-8.837 7.164-16 16-16s16 7.163 16 16c0 8.837-7.164 16-16 16s-16-7.163-16-16zM16.001 7.467c-2.318 0-2.608 0.010-3.519 0.052-0.909 0.041-1.529 0.186-2.071 0.396-0.562 0.218-1.038 0.509-1.512 0.983s-0.766 0.95-0.985 1.512c-0.211 0.543-0.355 1.163-0.396 2.071-0.041 0.91-0.051 1.201-0.051 3.519s0.010 2.607 0.051 3.518c0.042 0.908 0.186 1.528 0.396 2.071 0.218 0.561 0.51 1.037 0.984 1.512s0.95 0.767 1.511 0.985c0.543 0.211 1.163 0.355 2.071 0.396 0.91 0.041 1.201 0.051 3.518 0.051s2.608-0.010 3.518-0.051c0.909-0.042 1.529-0.186 2.072-0.396 0.561-0.219 1.037-0.511 1.511-0.985s0.766-0.95 0.985-1.512c0.209-0.543 0.354-1.163 0.396-2.071 0.041-0.91 0.051-1.2 0.051-3.518s-0.011-2.608-0.051-3.519c-0.043-0.908-0.187-1.528-0.396-2.071-0.219-0.562-0.51-1.037-0.985-1.512s-0.95-0.766-1.511-0.983c-0.544-0.211-1.165-0.355-2.073-0.396-0.911-0.042-1.2-0.052-3.519-0.052h0.003z"></path>
<path d="M15.235 9.005c0.227 0 0.481 0 0.766 0 2.278 0 2.548 0.009 3.448 0.049 0.832 0.038 1.284 0.178 1.584 0.294 0.398 0.155 0.682 0.34 0.98 0.639s0.483 0.583 0.639 0.981c0.117 0.3 0.256 0.752 0.294 1.584 0.041 0.899 0.050 1.17 0.050 3.447s-0.009 2.547-0.050 3.447c-0.038 0.832-0.177 1.283-0.294 1.584-0.155 0.397-0.34 0.682-0.639 0.98s-0.582 0.484-0.98 0.639c-0.301 0.117-0.752 0.256-1.584 0.294-0.899 0.041-1.17 0.050-3.448 0.050s-2.549-0.009-3.448-0.050c-0.832-0.038-1.284-0.178-1.584-0.294-0.399-0.155-0.683-0.34-0.981-0.639s-0.483-0.582-0.639-0.98c-0.117-0.301-0.256-0.752-0.294-1.584-0.041-0.899-0.049-1.17-0.049-3.448 0-2.279 0.008-2.548 0.049-3.447 0.038-0.832 0.177-1.284 0.294-1.585 0.155-0.398 0.34-0.683 0.639-0.981s0.583-0.483 0.981-0.639c0.301-0.117 0.752-0.256 1.584-0.294 0.787-0.035 1.092-0.046 2.683-0.048v0.002zM20.556 10.422c-0.566 0-1.024 0.458-1.024 1.023s0.459 1.024 1.024 1.024c0.565 0 1.024-0.459 1.024-1.024s-0.459-1.023-1.024-1.023zM16 11.618c-2.42 0-4.382 1.963-4.382 4.383s1.962 4.381 4.382 4.381c2.42 0 4.381-1.961 4.381-4.381s-1.961-4.383-4.381-4.383z"></path>
<path d="M16 13.155c1.571 0 2.845 1.273 2.845 2.845s-1.273 2.844-2.845 2.844c-1.571 0-2.844-1.273-2.844-2.844s1.274-2.845 2.844-2.845z"></path>
</symbol>
</defs>
</svg>
